<svg xmlns="http://www.w3.org/2000/svg" viewBox="0 0 1200 630" font-family="'Courier New', Courier, monospace">
  <rect width="1200" height="630" fill="#0f1113" />
  <rect x="36" y="36" width="1128" height="558" rx="18" fill="#171a1d" stroke="#343a42" stroke-width="2" />

  <text x="72" y="92" fill="#8ab8ff" font-size="20" font-weight="bold">dneufeld notes</text>
  <text x="72" y="122" fill="#aaa39a" font-size="18">Shopify x Tranco overlay</text>

  <text x="72" y="196" fill="#e8e5e0" font-size="44" font-weight="bold">THE MOST-VISITED</text>
  <text x="72" y="246" fill="#e8e5e0" font-size="44" font-weight="bold">SHOPIFY STORES AREN'T</text>
  <text x="72" y="296" fill="#e8e5e0" font-size="44" font-weight="bold">THE ONES YOU THINK</text>

  <text x="72" y="350" fill="#aaa39a" font-size="23">1.3M Shopify hosts from CC-MAIN-2025-43</text>
  <text x="72" y="384" fill="#aaa39a" font-size="23">joined against the Tranco top 1M</text>

  <rect x="72" y="432" width="450" height="118" rx="12" fill="#0f1113" stroke="#6eccaf" stroke-width="2" />
  <text x="98" y="468" fill="#6eccaf" font-size="22" font-weight="bold">EXACT MATCHES</text>
  <text x="98" y="498" fill="#e8e5e0" font-size="20">wyze.com          #5,052</text>
  <text x="98" y="526" fill="#e8e5e0" font-size="20">boat-lifestyle.com #8,913</text>
  <text x="98" y="554" fill="#e8e5e0" font-size="20">stylo.pk          #9,668</text>

  <rect x="572" y="432" width="556" height="118" rx="12" fill="#0f1113" stroke="#e8a87c" stroke-width="2" />
  <text x="598" y="468" fill="#e8a87c" font-size="22" font-weight="bold">SUBDOMAIN MATCHES</text>
  <text x="598" y="498" fill="#e8e5e0" font-size="20">shop.x.com              #58</text>
  <text x="598" y="526" fill="#e8e5e0" font-size="20">store.stanford.edu     #360</text>
  <text x="598" y="554" fill="#e8e5e0" font-size="20">shop.delta.com       #3,086</text>

  <line x1="630" y1="146" x2="630" y2="388" stroke="#343a42" stroke-width="2" stroke-dasharray="8 10" />

  <rect x="704" y="124" width="366" height="228" rx="14" fill="#0f1113" stroke="#343a42" stroke-width="2" />
  <text x="734" y="164" fill="#e8e5e0" font-size="24" font-weight="bold">Two Shopify stories</text>
  <text x="734" y="210" fill="#6eccaf" font-size="20" font-weight="bold">1.</text>
  <text x="768" y="210" fill="#e8e5e0" font-size="20">big brands quietly using</text>
  <text x="768" y="238" fill="#e8e5e0" font-size="20">Shopify on subdomains</text>
  <text x="734" y="286" fill="#e8a87c" font-size="20" font-weight="bold">2.</text>
  <text x="768" y="286" fill="#e8e5e0" font-size="20">a global exact-match list</text>
  <text x="768" y="314" fill="#e8e5e0" font-size="20">with strong India / Pakistan</text>
  <text x="768" y="342" fill="#e8e5e0" font-size="20">representation</text>

  <text x="72" y="585" fill="#aaa39a" font-size="18">dneufeld.github.io / most-visited-shopify-stores</text>
</svg>
